<svg width="29" height="30" viewBox="0 0 29 30" fill="none" xmlns="http://www.w3.org/2000/svg">
<path d="M4.00012 26.5V14H25.0001V26.5C25.0001 27.6046 24.1047 28.5 23.0001 28.5H6.00012C4.89555 28.5 4.00012 27.6046 4.00012 26.5Z" fill="black" stroke="#E4ECEE" stroke-width="1.5"/>
<path d="M1 12V10C1 8.89543 1.89543 8 3 8H26C27.1046 8 28 8.89543 28 10V12C28 13.1046 27.1046 14 26 14H3C1.89543 14 1 13.1046 1 12Z" fill="black" stroke="#E4ECEE" stroke-width="1.5"/>
<path d="M14.5001 8H11.0001C9.06706 8 7.50006 6.433 7.50006 4.5C7.50006 2.567 9.06706 1 11.0001 1C12.9331 1 14.5001 2.567 14.5001 4.5V8Z" fill="black" stroke="#E4ECEE" stroke-width="1.5"/>
<path d="M14.5 8H18C19.933 8 21.5 6.433 21.5 4.5C21.5 2.567 19.933 1 18 1C16.067 1 14.5 2.567 14.5 4.5V8Z" fill="black" stroke="#E4ECEE" stroke-width="1.5"/>
<path d="M14.5 8.99951L14.5 12.9995" stroke="#E4ECEE" stroke-width="1.5" stroke-linecap="round" stroke-linejoin="round"/>
</svg>
