<svg width="32" height="32" viewBox="0 0 32 32" fill="none" xmlns="http://www.w3.org/2000/svg">
<path fill-rule="evenodd" clip-rule="evenodd" d="M3.39318 4.07731C3.04263 4.22281 2.83095 4.4548 2.7186 4.8167C2.54468 5.37691 2.8183 5.96617 3.37423 6.22861L3.54484 6.30915L5.71621 6.32466L7.88758 6.34016L8.08012 6.44073C8.50018 6.66013 8.74887 7.0046 8.81661 7.46098L8.83569 7.58943L8.67181 7.62797C8.33457 7.70733 8.08173 7.89975 7.9387 8.18592C7.78931 8.48477 7.78633 8.65418 7.91742 9.39471C7.9793 9.74436 8.0995 10.4281 8.18453 10.9142C8.26952 11.4003 8.37341 11.9864 8.41537 12.2167C8.45731 12.4469 8.5402 12.9144 8.59951 13.2555C8.65885 13.5967 8.72923 14.0014 8.75591 14.1549C8.78262 14.3084 8.83119 14.5805 8.86389 14.7596C8.92558 15.0974 8.94565 15.2163 8.97649 15.4263C8.98651 15.4945 9.0143 15.6454 9.03825 15.7617C9.10565 16.0886 9.10019 16.1197 8.96551 16.175C8.90154 16.2013 8.7096 16.3151 8.53899 16.4278C7.23006 17.2927 6.63681 18.8625 7.03888 20.3971C7.24774 21.1942 7.80103 21.9608 8.51774 22.446C8.73469 22.5928 9.22452 22.83 9.45406 22.8993C9.972 23.0557 9.70551 23.049 15.8441 23.0617C19.7633 23.0698 21.6454 23.0631 21.8154 23.0407C22.1285 22.9992 22.3428 22.8929 22.5454 22.6787C22.783 22.4276 22.8368 22.283 22.838 21.892C22.8389 21.6041 22.8296 21.5463 22.7575 21.3928C22.6024 21.0619 22.2787 20.8157 21.9092 20.7474C21.7816 20.7238 20.0008 20.7136 16.0082 20.7136C10.4747 20.7136 10.2846 20.7117 10.1228 20.6548C9.9308 20.5874 9.69465 20.4345 9.56971 20.2967C9.42689 20.1393 9.26962 19.7888 9.2489 19.5817C9.19263 19.0191 9.5126 18.4802 10.031 18.2645L10.2559 18.1709L17.1523 18.163L24.0488 18.1552L24.2659 18.0819C24.5336 17.9915 24.7371 17.8901 24.9794 17.726C25.3731 17.4595 25.6267 17.1679 25.9008 16.6665C26.1359 16.2364 26.4814 15.5981 26.6391 15.3022C26.7792 15.0397 26.9182 14.7824 27.058 14.527C27.1047 14.4417 27.2406 14.1905 27.3601 13.9688C27.7496 13.2462 27.7876 13.1757 28.4151 12.0151C28.7563 11.384 29.1749 10.6096 29.3455 10.294C30.2701 8.58341 30.2907 8.53671 30.2585 8.22493C30.2339 7.98652 30.1229 7.81456 29.9215 7.70308L29.7564 7.6116L20.4583 7.60363C12.3476 7.59671 11.1601 7.58992 11.1601 7.5506C11.1601 7.52579 11.1446 7.3619 11.1256 7.18641C10.9768 5.80985 9.97504 4.58626 8.64756 4.15952C8.16176 4.00335 8.07856 3.99876 5.75157 4.00016L3.57586 4.00149L3.39318 4.07731ZM11.1031 23.8467C10.7405 23.9416 10.4673 24.1043 10.167 24.4039C9.71795 24.8518 9.54985 25.2618 9.54452 25.9217C9.53983 26.4998 9.73023 26.9475 10.1657 27.3824C10.473 27.6894 10.7268 27.8367 11.1264 27.9402C11.4869 28.0337 11.9647 28.0163 12.33 27.8966C12.783 27.7481 13.2196 27.3932 13.4793 26.9623C13.7394 26.5308 13.8338 25.8959 13.7105 25.4085C13.5474 24.7637 13.1583 24.2822 12.5573 23.9816C12.159 23.7825 11.5605 23.7269 11.1031 23.8467ZM20.229 23.8427C19.5323 24.0139 18.977 24.5337 18.735 25.2412C18.6662 25.4422 18.6551 25.5285 18.6534 25.8769C18.6517 26.2163 18.6628 26.3168 18.7239 26.5126C18.9492 27.2348 19.5292 27.7744 20.2752 27.9556C20.5704 28.0274 21.1094 28.006 21.3946 27.9113C22.0878 27.681 22.6552 27.0639 22.809 26.3731C22.8488 26.1943 22.8582 26.0477 22.8468 25.7886C22.8208 25.2044 22.6472 24.8172 22.2186 24.3879C21.8034 23.972 21.3348 23.7827 20.7297 23.7865C20.5744 23.7875 20.3522 23.8124 20.229 23.8427Z" fill="#161616"/>
</svg>
