<svg width="16" height="16" viewBox="0 0 16 16" fill="none" xmlns="http://www.w3.org/2000/svg">
<path d="M2.34375 15.2373H13.6562C14.9486 15.2373 16 14.2361 16 13.0053V2.23203C16 1.00127 14.9486 0 13.6562 0H2.34375C1.05139 0 0 1.00127 0 2.23203V13.0053C0 14.2361 1.05139 15.2373 2.34375 15.2373ZM0.9375 2.23203C0.9375 1.4936 1.56836 0.892812 2.34375 0.892812H13.6562C14.4316 0.892812 15.0625 1.4936 15.0625 2.23203V13.0053C15.0625 13.7437 14.4316 14.3445 13.6562 14.3445H2.34375C1.56836 14.3445 0.9375 13.7437 0.9375 13.0053V2.23203Z" fill="white"/>
<path d="M8 11.6369C10.3262 11.6369 12.2188 9.83451 12.2188 7.61922C12.2188 5.40393 10.3262 3.60156 8 3.60156C5.67383 3.60156 3.78125 5.40393 3.78125 7.61922C3.78125 9.83451 5.67383 11.6369 8 11.6369ZM8 4.49437C9.80933 4.49437 11.2812 5.89614 11.2812 7.61922C11.2812 9.3423 9.80933 10.7441 8 10.7441C6.19067 10.7441 4.71875 9.3423 4.71875 7.61922C4.71875 5.89614 6.19067 4.49437 8 4.49437Z" fill="white"/>
<path d="M12.6879 4.49484C13.4633 4.49484 14.0942 3.89405 14.0942 3.15562C14.0942 2.41719 13.4633 1.81641 12.6879 1.81641C11.9125 1.81641 11.2817 2.41719 11.2817 3.15562C11.2817 3.89405 11.9125 4.49484 12.6879 4.49484ZM12.6879 2.70922C12.9463 2.70922 13.1567 2.90952 13.1567 3.15562C13.1567 3.40173 12.9463 3.60203 12.6879 3.60203C12.4295 3.60203 12.2192 3.40173 12.2192 3.15562C12.2192 2.90952 12.4295 2.70922 12.6879 2.70922Z" fill="white"/>
</svg>
