<svg width="19" height="19" viewBox="0 0 19 19" fill="none" xmlns="http://www.w3.org/2000/svg">
<path d="M16.2036 17.5796H2.78094C1.50036 17.5796 0.5 16.5927 0.5 15.4312V2.64838C0.5 1.48692 1.50036 0.5 2.78094 0.5H16.2036C17.4842 0.5 18.4845 1.48692 18.4845 2.64838V15.4312C18.4845 16.5927 17.4842 17.5796 16.2036 17.5796ZM2.78094 0.559352C1.60806 0.559352 0.612376 1.47333 0.612376 2.64838V15.4312C0.612376 16.6063 1.60806 17.5203 2.78094 17.5203H16.2036C17.3765 17.5203 18.3722 16.6063 18.3722 15.4312V2.64838C18.3722 1.47333 17.3765 0.559352 16.2036 0.559352H2.78094Z" fill="black" stroke="black"/>
<path d="M13.998 9.04052C13.998 11.3702 11.9995 13.3076 9.49229 13.3076C6.98506 13.3076 4.9866 11.3702 4.9866 9.04052C4.9866 6.71088 6.98506 4.77344 9.49229 4.77344C11.9995 4.77344 13.998 6.71088 13.998 9.04052ZM13.8856 9.04052C13.8856 6.69715 11.892 4.83279 9.49229 4.83279C7.09262 4.83279 5.09898 6.69715 5.09898 9.04052C5.09898 11.3839 7.09262 13.2483 9.49229 13.2483C11.892 13.2483 13.8856 11.3839 13.8856 9.04052Z" fill="black" stroke="black"/>
<path d="M16.2233 3.74381C16.2233 4.32111 15.7219 4.83284 15.0547 4.83284C14.3875 4.83284 13.8861 4.32111 13.8861 3.74381C13.8861 3.16651 14.3875 2.65479 15.0547 2.65479C15.7219 2.65479 16.2233 3.16651 16.2233 3.74381ZM16.1109 3.74381C16.1109 3.15293 15.6142 2.71414 15.0547 2.71414C14.4952 2.71414 13.9985 3.15293 13.9985 3.74381C13.9985 4.3347 14.4952 4.77349 15.0547 4.77349C15.6142 4.77349 16.1109 4.3347 16.1109 3.74381Z" fill="black" stroke="black"/>
</svg>
