<svg width="32" height="32" viewBox="0 0 32 32" fill="none" xmlns="http://www.w3.org/2000/svg">
<path d="M2.93335 12.5335C2.93335 14.2668 3.20002 16.9335 5.60002 19.3335C7.73335 21.4668 14.8 26.2668 15.0667 26.5335C15.3334 26.6668 15.6 26.8002 15.8667 26.8002C16.1334 26.8002 16.4 26.6668 16.6667 26.5335C16.9334 26.2668 24 21.6002 26.1334 19.3335C28.5334 16.9335 28.8 14.2668 28.8 12.5335C28.8 8.5335 25.6 5.3335 21.6 5.3335C19.4667 5.3335 17.3334 6.5335 16 8.40016C14.6667 6.5335 12.5333 5.3335 10.1333 5.3335C6.26668 5.3335 2.93335 8.5335 2.93335 12.5335Z" fill="#161616"/>
</svg>
