<svg width="28" height="25" viewBox="0 0 28 25" fill="none" xmlns="http://www.w3.org/2000/svg">
<path d="M24.3809 15.6235L24.3707 15.6346L24.3608 15.6459C23.2827 16.8783 20.8771 18.8365 18.6208 20.5789C17.5087 21.4376 16.4586 22.2246 15.6648 22.819L15.6021 22.866C15.2339 23.1416 14.9211 23.3759 14.6892 23.5522C14.567 23.6451 14.4623 23.7258 14.3815 23.7899L14.3759 23.7944C14.3545 23.8113 14.3246 23.835 14.2914 23.8627C14.1933 23.9146 14.1229 23.9497 14.0588 23.9756C14.0315 23.9866 14.0122 23.993 14 23.9965C13.9878 23.993 13.9685 23.9866 13.9412 23.9756C13.8776 23.9499 13.8078 23.9152 13.7108 23.8638C13.6796 23.8375 13.6513 23.8147 13.6304 23.7978L13.6257 23.7939C13.5454 23.729 13.4412 23.647 13.319 23.5521C13.0739 23.3618 12.7389 23.1056 12.343 22.803L12.2355 22.7209C11.4549 22.1245 10.4477 21.355 9.3835 20.5239C7.12872 18.7633 4.70855 16.7957 3.61906 15.6235C1.27368 13.1002 1 10.3017 1 8.38509C1 4.22124 4.21656 1 7.79381 1C10.0146 1 12.0287 2.19277 13.3112 4.12454L14.1443 5.37938L14.9774 4.12454C16.2731 2.17293 18.2948 1 20.2062 1C23.9162 1 27 4.20887 27 8.38509C27 10.3017 26.7263 13.1002 24.3809 15.6235Z" stroke="#969696" stroke-width="2"/>
</svg>
