<svg width="192" height="63" viewBox="0 0 192 63" fill="none" xmlns="http://www.w3.org/2000/svg">
<path d="M78.7857 62.4838C77.0302 62.4838 75.3444 62.1319 73.7283 61.4282C72.14 60.6963 70.4263 59.3592 68.5873 57.417L61.858 50.3234V62.0615H56.4244L56.3826 39.6831C56.3826 38.2475 56.1875 37.1919 55.7974 36.5164C55.4073 35.8126 54.6271 35.4608 53.4568 35.4608H53.0388V34.1941H58.0545C59.0297 34.1941 59.7821 34.363 60.3115 34.7008C60.8688 35.0385 61.2589 35.6015 61.4818 36.3897C61.7326 37.1779 61.858 38.2757 61.858 39.6831V47.7056L69.0888 38.6275C70.1198 37.2764 71.2205 36.2067 72.3908 35.4186C73.5889 34.6022 74.9543 34.1941 76.4869 34.1941H79.4126V35.6719C77.685 35.6719 76.1943 35.8971 74.9404 36.3475C73.7143 36.7697 72.6555 37.5438 71.7638 38.6698L65.5361 46.4389L75.1911 56.5725C76.2221 57.7266 77.3785 58.74 78.6603 59.6126C79.9699 60.457 81.0288 60.9356 81.8368 61.0482V62.0615C81.0009 62.343 79.9839 62.4838 78.7857 62.4838ZM93.4106 62.906C90.7077 62.906 88.2974 62.2586 86.1797 60.9637C84.0899 59.6689 82.4738 57.8955 81.3313 55.6436C80.1889 53.3917 79.6176 50.8864 79.6176 48.1278C79.6176 45.3692 80.1889 42.864 81.3313 40.612C82.4738 38.3601 84.0899 36.5867 86.1797 35.2919C88.2974 33.997 90.7077 33.3496 93.4106 33.3496C96.1134 33.3496 98.5098 33.997 100.6 35.2919C102.689 36.5867 104.306 38.3601 105.448 40.612C106.591 42.864 107.162 45.3692 107.162 48.1278C107.162 50.8864 106.591 53.3917 105.448 55.6436C104.306 57.8955 102.689 59.6689 100.6 60.9637C98.5098 62.2586 96.1134 62.906 93.4106 62.906ZM93.4106 61.0059C95.9463 61.0059 97.9107 59.8941 99.3039 57.6703C100.697 55.4184 101.394 52.2375 101.394 48.1278C101.394 44.0181 100.697 40.8513 99.3039 38.6275C97.9107 36.3756 95.9463 35.2497 93.4106 35.2497C90.8749 35.2497 88.9105 36.3756 87.5172 38.6275C86.1519 40.8513 85.4692 44.0181 85.4692 48.1278C85.4692 52.2375 86.1519 55.4184 87.5172 57.6703C88.9105 59.8941 90.8749 61.0059 93.4106 61.0059ZM131.259 62.4838C129.727 62.4838 128.333 62.0334 127.08 61.1326C125.826 60.2037 124.516 58.6133 123.151 56.3614L118.971 49.3101H117.299V62.0615H111.824V39.6831C111.824 38.2475 111.629 37.1919 111.239 36.5164C110.848 35.8126 110.068 35.4608 108.898 35.4608H108.48V34.1941H120.016C122.914 34.1941 125.519 34.7289 127.832 35.7986C130.145 36.8682 131.301 38.9231 131.301 41.9632C131.301 45.4818 129.044 47.8182 124.53 48.9723L128.919 56.3614C130.563 59.1481 132.29 60.6963 134.101 61.0059V62.0615C133.879 62.1741 133.475 62.2726 132.89 62.3571C132.304 62.4415 131.761 62.4838 131.259 62.4838ZM119.807 47.6211C121.367 47.6211 122.691 47.1567 123.778 46.2277C124.892 45.2707 125.449 43.7788 125.449 41.7521C125.449 39.7535 124.906 38.2757 123.819 37.3186C122.733 36.3615 121.465 35.883 120.016 35.883C119.208 35.883 118.581 35.9393 118.135 36.0519L117.299 36.1786V47.6211H119.807ZM136.953 39.6831C136.953 38.2475 136.758 37.1919 136.368 36.5164C135.978 35.8126 135.197 35.4608 134.027 35.4608H133.609V34.1941H152.041C154.409 34.1941 155.594 35.32 155.594 37.5719V41.1609H154.34C154.34 39.4157 153.895 38.1349 153.003 37.3186C152.139 36.5023 150.843 36.0941 149.115 36.0941H142.387V46.65H153.254V48.55H142.387V60.1615H149.533C151.121 60.1615 152.446 59.8096 153.504 59.1059C154.563 58.374 155.44 57.1214 156.137 55.348L157.266 55.7702L156.053 59.1059C155.691 60.1193 155.26 60.8652 154.758 61.3437C154.257 61.8223 153.477 62.0615 152.418 62.0615H136.953V39.6831ZM183.665 62.2304C181.909 62.2304 180.321 61.8645 178.9 61.1326C177.479 60.3726 176.323 58.9088 175.431 56.7414L174.469 54.3769H163.351L159.924 62.0615H157.75L170.081 34.1941H171.961L181.324 56.7414C182.383 59.3592 183.832 60.7667 185.671 60.9637V62.0193C185.169 62.16 184.5 62.2304 183.665 62.2304ZM164.23 52.4768H173.676L169.078 41.4565L164.23 52.4768Z" fill="black"/>
<path d="M65.8463 30.9638L63.0089 23.3636H63.9834L66.5628 30.4137H66.1186L68.7697 23.3636H69.6439L72.2663 30.4137H71.8221L74.4445 23.3636H75.376L72.5242 30.9638H71.5641L69.042 24.3335H69.3429L66.8064 30.9638H65.8463ZM79.7648 31.0362C79.0387 31.0362 78.3843 30.8721 77.8015 30.544C77.2283 30.2062 76.7745 29.7478 76.4402 29.1687C76.1058 28.58 75.9386 27.9092 75.9386 27.1565C75.9386 26.394 76.1058 25.7233 76.4402 25.1442C76.7745 24.5651 77.2283 24.1115 77.8015 23.7834C78.3747 23.4553 79.0292 23.2912 79.7648 23.2912C80.51 23.2912 81.1692 23.4553 81.7424 23.7834C82.3251 24.1115 82.7789 24.5651 83.1038 25.1442C83.4381 25.7233 83.6053 26.394 83.6053 27.1565C83.6053 27.9092 83.4381 28.58 83.1038 29.1687C82.7789 29.7478 82.3251 30.2062 81.7424 30.544C81.1596 30.8721 80.5004 31.0362 79.7648 31.0362ZM79.7648 30.1242C80.3093 30.1242 80.7918 30.0035 81.2122 29.7622C81.6325 29.5113 81.9621 29.1639 82.2009 28.7199C82.4493 28.2663 82.5735 27.7452 82.5735 27.1565C82.5735 26.5581 82.4493 26.0369 82.2009 25.593C81.9621 25.149 81.6325 24.8064 81.2122 24.5651C80.7918 24.3142 80.3141 24.1888 79.7791 24.1888C79.2441 24.1888 78.7664 24.3142 78.3461 24.5651C77.9257 24.8064 77.5914 25.149 77.343 25.593C77.0946 26.0369 76.9704 26.5581 76.9704 27.1565C76.9704 27.7452 77.0946 28.2663 77.343 28.7199C77.5914 29.1639 77.9257 29.5113 78.3461 29.7622C78.7664 30.0035 79.2393 30.1242 79.7648 30.1242ZM89.5231 23.2912C90.1345 23.2912 90.6695 23.4118 91.1281 23.6531C91.5962 23.8847 91.9592 24.2418 92.2172 24.7244C92.4847 25.2069 92.6184 25.815 92.6184 26.5484V30.9638H91.601V26.6498C91.601 25.8487 91.4004 25.2455 90.9991 24.8402C90.6074 24.4252 90.0533 24.2177 89.3368 24.2177C88.8018 24.2177 88.3337 24.3287 87.9324 24.5507C87.5407 24.763 87.235 25.0767 87.0153 25.4916C86.8051 25.897 86.7 26.3892 86.7 26.9683V30.9638H85.6826V23.3636H86.657V25.4482L86.4994 25.0574C86.7382 24.5072 87.1204 24.0778 87.6458 23.7689C88.1713 23.4504 88.797 23.2912 89.5231 23.2912ZM98.3617 31.0362C97.6452 31.0362 97.0003 30.8721 96.4271 30.544C95.8635 30.2158 95.4192 29.7622 95.0944 29.1832C94.7696 28.5945 94.6072 27.9189 94.6072 27.1565C94.6072 26.3844 94.7696 25.7088 95.0944 25.1297C95.4192 24.5507 95.8635 24.1019 96.4271 23.7834C97.0003 23.4553 97.6452 23.2912 98.3617 23.2912C99.0209 23.2912 99.6085 23.4408 100.124 23.74C100.65 24.0392 101.065 24.4783 101.371 25.0574C101.686 25.6268 101.844 26.3265 101.844 27.1565C101.844 27.9768 101.691 28.6765 101.385 29.2556C101.08 29.8346 100.664 30.2786 100.139 30.5874C99.6228 30.8866 99.0305 31.0362 98.3617 31.0362ZM98.4334 30.1242C98.9684 30.1242 99.446 30.0035 99.8664 29.7622C100.296 29.5113 100.631 29.1639 100.87 28.7199C101.118 28.2663 101.242 27.7452 101.242 27.1565C101.242 26.5581 101.118 26.0369 100.87 25.593C100.631 25.149 100.296 24.8064 99.8664 24.5651C99.446 24.3142 98.9684 24.1888 98.4334 24.1888C97.9079 24.1888 97.435 24.3142 97.0147 24.5651C96.5943 24.8064 96.2599 25.149 96.0115 25.593C95.7631 26.0369 95.639 26.5581 95.639 27.1565C95.639 27.7452 95.7631 28.2663 96.0115 28.7199C96.2599 29.1639 96.5943 29.5113 97.0147 29.7622C97.435 30.0035 97.9079 30.1242 98.4334 30.1242ZM101.271 30.9638V28.6765L101.371 27.142L101.228 25.6075V20.2222H102.245V30.9638H101.271ZM108.274 31.0362C107.491 31.0362 106.803 30.8721 106.211 30.544C105.619 30.2062 105.155 29.7478 104.821 29.1687C104.486 28.58 104.319 27.9092 104.319 27.1565C104.319 26.4037 104.477 25.7378 104.792 25.1587C105.117 24.5796 105.556 24.126 106.111 23.7979C106.674 23.4601 107.305 23.2912 108.002 23.2912C108.709 23.2912 109.335 23.4553 109.879 23.7834C110.434 24.1019 110.868 24.5555 111.184 25.1442C111.499 25.7233 111.656 26.394 111.656 27.1565C111.656 27.2047 111.652 27.2578 111.642 27.3157C111.642 27.364 111.642 27.417 111.642 27.4749H105.093V26.7077H111.098L110.696 27.0117C110.696 26.4616 110.577 25.9742 110.338 25.5496C110.109 25.1153 109.793 24.7775 109.392 24.5362C108.991 24.2949 108.528 24.1743 108.002 24.1743C107.486 24.1743 107.023 24.2949 106.612 24.5362C106.201 24.7775 105.881 25.1153 105.652 25.5496C105.423 25.9839 105.308 26.4809 105.308 27.0406V27.1999C105.308 27.779 105.432 28.2905 105.681 28.7344C105.939 29.1687 106.292 29.5113 106.741 29.7622C107.2 30.0035 107.72 30.1242 108.303 30.1242C108.762 30.1242 109.187 30.0421 109.579 29.8781C109.98 29.714 110.324 29.4631 110.61 29.1253L111.184 29.7912C110.849 30.1965 110.429 30.5054 109.922 30.7177C109.426 30.93 108.876 31.0362 108.274 31.0362ZM113.727 30.9638V23.3636H114.702V25.4337L114.602 25.0718C114.812 24.4928 115.165 24.0536 115.662 23.7545C116.159 23.4456 116.775 23.2912 117.511 23.2912V24.2901C117.472 24.2901 117.434 24.2901 117.396 24.2901C117.358 24.2804 117.32 24.2756 117.281 24.2756C116.488 24.2756 115.867 24.5217 115.418 25.0139C114.969 25.4965 114.745 26.1865 114.745 27.0841V30.9638H113.727Z" fill="black"/>
<path fill-rule="evenodd" clip-rule="evenodd" d="M20.5403 2.48623C21.2627 1.77324 21.511 1.57985 23.0253 0.549439C23.5042 0.223615 23.9252 0 24.0596 0C24.3541 0 25.6971 0.722914 26.9049 1.53156C28.1062 2.33591 29.2995 3.52402 30.0184 4.63175L30.5497 5.45029L30.8973 5.3928C31.9769 5.21432 33.2382 5.08213 34.7674 4.98738C36.6949 4.8679 38.315 4.95038 40.1852 5.26315C40.7841 5.36324 41.0307 5.43431 41.2158 5.35639C41.3995 5.27915 41.5227 5.05544 41.8689 4.56837C42.3973 3.82521 44.1853 2.09301 44.9189 1.6137C45.6683 1.12412 47.5861 0.176279 47.8284 0.175754C48.0714 0.17514 49.315 0.79155 49.9516 1.22809C51.1356 2.04006 52.532 3.7457 53.2882 5.3033C53.8675 6.49667 53.9997 6.94933 54.1268 8.17531C54.2527 9.39007 54.1788 11.7817 53.9946 12.4457C53.9214 12.7098 53.8897 12.9503 53.9241 12.9799C53.9584 13.0096 54.5023 13.0806 55.1326 13.1376C56.9817 13.3051 58.1629 13.6985 59.4886 14.5885C60.2184 15.0784 61.5424 16.3897 62.011 17.0865L62.3626 17.6096C62.3626 17.6096 62.8895 18.5792 62.8945 19.2555C62.8995 19.9475 62.3626 20.9437 62.3626 20.9437L61.8446 21.5031C61.5455 21.826 61.1103 22.1788 60.8148 22.3378L60.3032 22.6132L60.2403 29.9997C60.2325 30.931 60.2245 31.7865 60.2165 32.5723H58.1278L58.13 31.704L58.153 22.791H54.312H50.4711V31.5958V40.4008L50.7897 40.9534C50.868 41.0891 50.9691 41.2369 51.0852 41.389V44.1786C50.7942 43.9603 50.4982 43.691 50.16 43.3494C48.9672 42.1451 48.6793 41.5702 48.5564 40.1472C48.5084 39.5928 48.4412 37.9984 48.4069 36.6042C48.3684 35.0433 48.3112 34.0598 48.2577 34.0449C48.21 34.0317 47.7803 34.355 47.3029 34.7635C44.6939 36.9964 41.5537 38.452 38.2022 38.982C36.8692 39.1927 33.9744 39.1908 32.5903 38.9782C28.8269 38.4002 26.0094 37.078 23.1007 34.5247L22.6818 34.1569L22.7391 34.5004C22.7707 34.6893 22.8726 35.1398 22.9655 35.5014C23.568 37.8456 24.6561 39.2816 27.3629 41.3043C29.2759 42.7338 29.865 43.4516 30.2043 44.7671C30.3595 45.3694 30.3756 46.9622 30.2327 47.5877C30.1379 48.0023 30.1454 48.0496 30.356 48.371C30.4794 48.5591 30.8066 49.1624 31.0832 49.7116C31.0832 49.7116 31.3973 50.4075 31.4831 50.8366C31.5893 51.3675 31.5893 53.1645 31.5893 53.1645C31.5912 54.7798 31.5549 55.8172 31.4831 56.1988C31.3782 56.757 31.3827 56.7979 31.604 57.286C31.7305 57.565 31.8775 58.1012 31.9308 58.4774C31.984 58.8538 32.0719 59.2065 32.1259 59.261C32.3691 59.5067 38.5016 59.5928 39.3173 59.362C39.5604 59.2933 39.5812 59.2539 39.6294 58.7686C39.6578 58.4825 39.797 57.9579 39.9386 57.6025L40.1961 56.9563L40.03 55.9809C39.7913 54.5784 39.7727 51.8028 39.9972 51.0607C40.6454 48.9184 42.4663 46.7768 44.5275 45.7324C45.5298 45.2246 46.1261 45.1136 47.8668 45.1114C49.5656 45.1092 50.0535 45.171 51.0852 45.6786V47.8351C49.8395 47.1988 49.2798 47.0503 48.2003 47.0055C46.9975 46.9556 46.2068 47.1027 45.2976 47.5452C43.7556 48.2961 42.6656 49.5464 42.0803 51.236C41.8538 51.89 41.8383 52.0229 41.8509 53.2083C41.8583 53.9074 41.8971 54.5879 41.9367 54.7206L42.009 54.9617L42.7451 54.4642C43.6412 53.8583 44.8234 53.2842 45.6971 53.0306C46.5331 52.7881 48.6715 52.6936 49.6697 52.855C50.1726 52.9364 50.6379 53.0471 51.0852 53.1949V55.3187C50.856 55.214 50.6217 55.1203 50.3843 55.0392C49.6337 54.7827 49.4469 54.7548 48.3011 54.728C46.9156 54.6955 46.3526 54.8006 45.1564 55.3147C43.3598 56.0866 41.7043 57.841 41.7043 58.9726C41.7043 59.8571 42.2931 60.4245 43.1632 60.3785L43.6573 60.3524L43.6825 59.7288C43.7037 59.2055 43.7409 59.0738 43.9131 58.9104C44.3118 58.5321 44.6555 59.0027 44.6555 59.9272V60.3962H45.8707H47.086V59.7787C47.086 59.2398 47.113 59.1335 47.2991 58.9459C47.5727 58.6695 47.6314 58.6747 47.9028 59.0004C48.0935 59.2293 48.1276 59.3553 48.1276 59.8332V60.3962H49.2891C50.0647 60.3962 50.365 60.4023 50.4816 60.2574C50.5599 60.1602 50.5555 59.9949 50.5567 59.7141C50.558 59.3967 50.7478 58.8728 50.8944 58.7811C50.9467 58.7486 51.0139 58.751 51.0852 58.7802V62.0617H48.1967H41.5109L41.0069 61.6208L40.5029 61.1798L39.6931 61.2889C38.692 61.4238 33.2186 61.4266 32.1584 61.293C31.3386 61.1896 31.3118 61.1974 30.7234 61.7117L30.3229 62.0617H23.7178H17.1126L16.6534 61.7039C16.2033 61.3533 15.6193 60.7489 15.4474 60.4559C15.3692 60.3229 14.9771 60.2996 11.5375 60.2229C9.43494 60.1761 7.44287 60.0987 7.1107 60.0509C5.58692 59.8319 4.02557 58.9661 2.52783 57.5096C1.59994 56.6072 1.10605 55.9297 0.650523 54.9339C0.0744308 53.6747 0.00412283 53.294 0.000303636 51.4112C-0.00351556 49.5126 0.112189 48.9216 0.732982 47.6686C1.15049 46.8259 1.42347 46.4263 2.19487 45.5288C3.2875 44.2574 4.53066 43.4283 6.20311 42.8554C6.94552 42.6011 7.15314 42.5691 8.28632 42.5348C9.40898 42.5007 9.59691 42.5164 10.0262 42.6802C10.6917 42.9341 11.4192 43.6095 11.7523 44.2828C11.999 44.7813 12.0187 44.8895 12.0187 45.7436C12.0187 46.4941 11.9856 46.7354 11.841 47.0369C11.3494 48.0626 10.4456 48.6514 8.75269 49.049C7.81378 49.2695 7.71065 49.3145 7.38082 49.648C7.18465 49.8464 6.9541 50.1579 6.86861 50.3404C6.65483 50.7961 6.66142 51.6816 6.88232 52.1859C7.10904 52.7035 7.6236 53.264 7.98164 53.3834C8.19804 53.4554 15.1489 53.6653 15.2913 53.604C15.301 53.5999 15.2113 53.085 15.092 52.46C14.9441 51.6848 14.86 50.8779 14.827 49.9211C14.7711 48.2899 14.8787 47.4478 15.3583 45.7651C15.5267 45.1746 15.6643 44.623 15.6643 44.5397C15.6643 44.456 15.5469 44.0369 15.4033 43.6081C15.005 42.4178 14.8607 41.4891 14.8663 40.1472C14.8757 37.8102 15.4423 35.9486 16.7339 34.012C17.3347 33.1107 18.8247 31.5887 19.7551 30.9256C20.1786 30.6236 20.5251 30.3421 20.5251 30.2999C20.5251 30.2576 20.1898 29.823 19.7802 29.334C18.035 27.2517 16.9917 25.1878 16.5687 22.9805C16.4255 22.233 16.4051 19.5966 16.5349 18.5875C16.6738 17.5061 17.0546 16.3272 17.6564 15.1161L18.2249 13.9718L17.9517 13.2315C17.2189 11.2457 17.21 8.5795 17.9296 6.5199C18.49 4.91558 19.2165 3.79322 20.5403 2.48623ZM27.2452 4.32275C26.6883 3.75771 25.6634 3.07503 24.9379 2.78611C23.6797 2.28489 23.2318 2.41944 21.9904 3.67189C20.7862 4.88683 20.1301 6.06075 19.6347 7.88649C19.4922 8.41173 19.4564 8.79733 19.4593 9.77385C19.4632 11.0388 19.5489 11.751 19.7006 11.7758C19.7543 11.7845 19.8063 11.1727 19.8372 10.1683C19.8855 8.6008 19.8965 8.52227 20.1709 7.81829C20.9263 5.88035 22.4526 4.42961 23.7363 4.42961C24.5871 4.42961 25.1409 4.96853 24.7233 5.39008C24.603 5.51166 24.4824 5.53208 24.1308 5.49036C23.4641 5.4112 23.0826 5.55891 22.4975 6.12246C21.654 6.93479 21.0688 8.09318 20.8714 9.34125C20.7788 9.92663 20.8346 10.432 20.9916 10.4301C21.0454 10.4295 21.3627 10.1921 21.6968 9.90243C23.061 8.72037 24.8867 7.62438 27.1652 6.61965C27.8699 6.3089 28.4658 6.03532 28.4892 6.01174C28.5588 5.94126 27.727 4.81171 27.2452 4.32275ZM51.3665 5.91689C50.6379 4.44688 49.5479 3.15042 48.709 2.75596C47.5727 2.22169 46.2191 2.75587 44.4935 4.4198C43.9589 4.93514 43.1295 5.94232 43.1924 5.99948C43.2095 6.0149 43.5571 6.17145 43.9651 6.34748C45.1528 6.85975 48.0836 8.45854 48.9659 9.07547C49.7055 9.59257 49.7768 9.62474 49.7768 9.44162C49.7768 8.78822 49.2011 7.33722 48.676 6.66698C48.0063 5.81215 47.5108 5.52245 46.718 5.52245C45.6825 5.52245 45.4505 5.00166 46.2904 4.56241C46.6083 4.39613 47.4621 4.43654 47.9165 4.63947C48.1666 4.75123 48.5999 5.10825 49.0803 5.59844C50.2905 6.83362 50.8121 8.10002 50.8178 9.81767L50.8202 10.5628L51.3881 11.1545C51.7006 11.4799 51.9879 11.7461 52.0269 11.7461C52.1434 11.7461 52.2051 11.1518 52.2061 10.0212C52.2077 8.20292 52.0027 7.20039 51.3665 5.91689ZM41.1835 7.55031C39.7685 7.18531 38.7088 7.0199 37.1779 6.92471C35.3064 6.80838 34.4957 6.83441 32.9375 7.06075C30.1811 7.46125 27.3612 8.43153 25.2749 9.6974C23.7369 10.6307 21.671 12.4974 20.6307 13.8938C19.7002 15.1431 18.7395 17.4423 18.5228 18.9389C18.3921 19.8408 18.4623 22.0544 18.649 22.9225C18.9652 24.3919 19.7045 25.9965 20.6555 27.2761C21.7282 28.7193 23.6596 30.5077 25.0821 31.3747C27.4262 32.8036 30.7508 33.9042 33.6089 34.1976C34.8968 34.3299 38.3066 34.2465 39.3173 34.0583C41.6913 33.6159 44.2139 32.7613 45.8707 31.8383C47.1394 31.1315 48.2285 30.3908 48.3075 30.1814C48.4179 29.8877 48.4107 28.1627 48.2987 28.0928C48.2496 28.0622 47.283 27.8991 46.1505 27.7302C43.6382 27.3557 42.6465 27.1555 42.3581 26.9647C42.081 26.7813 42.0645 26.431 42.3264 26.2895C42.5528 26.1671 42.8224 26.1919 45.849 26.6144C47.7085 26.8739 48.1518 26.9119 48.2603 26.8211C48.3689 26.73 48.3886 26.5105 48.3687 25.6052L48.3445 24.5003L48.0407 24.475C47.8736 24.461 47.0143 24.5507 46.1311 24.6743C42.6193 25.1653 42.1383 25.1658 42.1383 24.6795C42.1383 24.2309 42.4744 24.1353 45.8707 23.6175C47.0403 23.4392 48.0852 23.2601 48.1926 23.2195C48.334 23.1663 48.3879 23.0752 48.3879 22.8892C48.3879 22.6712 48.3192 22.5929 47.9323 22.3705C47.2129 21.9571 46.4347 21.1882 46.1587 20.6188C45.9419 20.1713 45.8469 19.7874 45.849 19.2409C45.851 18.7141 45.9427 18.3153 46.1513 17.9132C46.8658 16.5359 48.8032 14.694 50.3626 13.9099C50.661 13.7597 50.9051 13.5927 50.9051 13.5387C50.9051 13.3772 49.2983 11.7072 48.579 11.1212C46.515 9.4396 44.2284 8.33556 41.1835 7.55031ZM28.6134 11.7611C28.5981 11.6019 28.6357 11.4109 28.6966 11.3368C28.8598 11.1381 29.6597 11.2226 30.2619 11.5019C31.2886 11.9782 31.9809 12.9418 32.0521 13.9936C32.0832 14.4537 32.0619 14.5589 31.9055 14.7168C31.8046 14.8187 31.6665 14.9018 31.5984 14.9018C31.3982 14.9018 31.1347 14.4897 31.0352 14.0213C30.9378 13.5628 30.6518 13.0398 30.3488 12.7662C30.2493 12.6764 29.8243 12.4786 29.4044 12.3267C28.669 12.0607 28.6399 12.0399 28.6134 11.7611ZM38.889 12.9783C39.2471 12.3138 39.7929 11.781 40.4246 11.4792C41.09 11.1613 41.6583 11.1333 41.9964 11.4019C42.1221 11.5017 42.2251 11.6269 42.2251 11.6799C42.2251 11.8939 41.905 12.1073 41.3215 12.2822C40.8127 12.4347 40.6288 12.5448 40.2599 12.9173C39.8912 13.2897 39.7821 13.4756 39.6311 13.9894C39.5307 14.3312 39.3691 14.6833 39.2722 14.7718C39.101 14.9283 39.0895 14.9279 38.8596 14.7526C38.6438 14.5883 38.6234 14.5231 38.6288 14.0112C38.6335 13.5638 38.6863 13.3546 38.889 12.9783ZM60.4153 18.189C59.7117 16.9785 57.8544 15.6382 56.2734 15.2002C55.5983 15.013 53.4269 14.959 52.7713 15.113C51.3849 15.4388 50.3111 16.0875 49.0789 17.3444C48.1574 18.2845 47.9539 18.6302 47.9539 19.2555C47.9539 20.0899 48.4991 20.6403 49.3861 20.7013L49.8201 20.731L49.8416 20.2052C49.8812 19.2377 49.9248 19.1094 50.2146 19.1094C50.6644 19.1094 50.8184 19.3663 50.8184 20.1175V20.7749H52.0335H53.2487L53.2525 20.4023C53.2581 19.8516 53.384 19.2858 53.535 19.1332C53.6218 19.0456 53.7445 19.0184 53.8885 19.0548C54.1559 19.1226 54.2891 19.5264 54.2897 20.2709L54.2903 20.7749H55.4995H56.7088L56.7698 20.068C56.8348 19.315 56.9444 19.1094 57.2804 19.1094C57.597 19.1094 57.7018 19.3304 57.7453 20.0891L57.7858 20.796L58.7564 20.7585C60.3033 20.6987 60.6701 20.4078 60.6701 19.2409C60.6701 18.7201 60.6316 18.561 60.4153 18.189ZM26.1882 18.8759C26.6647 18.3672 27.1312 18.073 27.6427 17.959C27.8098 17.9218 28.2651 17.9043 28.6545 17.9203C29.8654 17.9701 30.8281 18.5779 31.33 19.6099C31.7821 20.5388 31.6994 21.3008 31.1466 21.3008C30.9089 21.3008 30.7608 21.0929 30.506 20.401C30.4037 20.123 30.2172 19.7722 30.0916 19.6216C29.7882 19.2574 29.0881 18.9359 28.5976 18.9354C27.897 18.9347 27.6641 19.0369 26.5251 19.8434C26.184 20.0851 26.1606 20.0895 25.9514 19.951C25.6037 19.721 25.6674 19.432 26.1882 18.8759ZM39.2722 19.7435C39.5284 19.1734 40.2785 18.4219 40.8797 18.1327C41.9869 17.6003 43.5688 17.9203 44.509 18.8669C44.8567 19.2167 44.9222 19.3332 44.8995 19.561C44.8839 19.7198 44.7959 19.8856 44.6899 19.9564C44.5245 20.0666 44.467 20.0486 44.0823 19.7669C42.722 18.7706 41.5434 18.6767 40.7015 19.4974C40.4298 19.7622 40.2955 19.9904 40.1813 20.3804C39.9639 21.1239 39.5092 21.5034 39.2044 21.1956C39.0417 21.0313 39.0821 20.1664 39.2722 19.7435ZM33.1099 24.2428C33.1861 23.9015 33.6247 23.3599 33.9358 23.223C34.0312 23.1811 34.7218 23.1554 35.4703 23.1662C37.006 23.1879 37.1419 23.2364 37.5148 23.895C37.8765 24.5338 37.8306 24.6495 36.5415 26.3422C36.1006 26.9212 36.0239 27.0754 36.0314 27.3671C36.042 27.7732 36.3858 28.2531 36.8443 28.5015C37.312 28.7548 38.1047 28.7241 38.5239 28.4363C38.8385 28.2205 39.2709 27.4951 39.273 27.1795C39.2742 26.9987 39.6244 26.6479 39.8036 26.6479C40.0743 26.6479 40.2288 26.8983 40.2268 27.3336C40.2232 28.1118 39.6012 29.0183 38.7405 29.4998C38.3384 29.7247 38.188 29.7593 37.6248 29.7561C36.8936 29.752 36.285 29.515 35.6964 29.0052L35.3737 28.7259L34.9107 29.0866C34.2542 29.5981 33.8658 29.7448 33.1545 29.7499C32.3849 29.7553 31.8161 29.5131 31.2626 28.9442C30.7803 28.4483 30.6312 28.1095 30.5485 27.322L30.4857 26.7251L30.9087 26.7522L31.3317 26.7794L31.5487 27.4482C31.6681 27.816 31.8243 28.1871 31.8959 28.2729C32.0785 28.492 32.8441 28.8375 33.1488 28.8386C33.7736 28.8406 34.6149 28.1484 34.728 27.539C34.8006 27.1484 34.6613 26.8775 33.8871 25.9029C33.127 24.946 33.0091 24.6941 33.1099 24.2428ZM22.1756 24.1659C21.9298 24.0475 21.8358 23.6491 22.0051 23.4432C22.1548 23.2611 22.5969 23.2841 24.6047 23.5782C26.9944 23.9283 28.2371 24.161 28.3867 24.2864C28.5517 24.4247 28.5437 24.7207 28.3682 24.9737C28.2361 25.1642 28.1853 25.1752 27.684 25.1235C26.7073 25.0224 22.3989 24.2734 22.1756 24.1659ZM24.8731 26.6119C26.1816 26.3943 27.3498 26.1994 27.4691 26.179C27.9792 26.0918 28.2854 26.1606 28.4127 26.3911C28.5644 26.665 28.487 27.0542 28.267 27.1247C27.9376 27.2302 23.6571 27.879 22.9364 27.9325C22.0806 27.996 21.9139 27.9271 21.9139 27.5094C21.9139 27.1362 22.1469 27.0656 24.8731 26.6119ZM29.7362 35.4485C27.7669 34.8906 25.457 33.8541 23.7096 32.7441C23.2888 32.4768 22.9067 32.258 22.8605 32.258C22.6977 32.258 22.6837 32.5095 22.8335 32.7404C23.0836 33.1261 24.836 34.6716 25.6211 35.1993C26.6879 35.9162 28.4179 36.7364 29.9494 37.2511C32.0098 37.9438 32.2259 37.9731 35.3245 37.9757C37.937 37.978 38.0456 37.9712 39.0569 37.7414C41.9132 37.0925 44.1551 36.0017 46.32 34.2075C47.5459 33.1915 47.5134 33.1519 46.0408 33.8693C44.0726 34.828 42.0634 35.5289 40.1852 35.9119C39.5059 36.0503 38.9404 36.0711 35.8453 36.0711C33.3787 36.0711 32.4717 36.0722 31.5912 35.918C31.0696 35.8268 30.5574 35.6811 29.7362 35.4485ZM22.2267 38.9029C21.281 37.3532 20.7132 35.3697 20.6927 33.5447C20.6819 32.6005 20.6522 32.5894 19.9012 33.2507C19.1223 33.9369 18.5098 34.7477 18.0125 35.7516C16.7347 38.3307 16.5996 41.0721 17.6235 43.6417C18.612 46.1228 20.7265 48.0454 23.4763 48.9632C24.1139 49.1759 24.3557 49.2101 25.2557 49.2145C26.4809 49.2208 26.8418 49.097 27.5503 48.4277C28.1634 47.8486 28.3639 47.2934 28.3719 46.1518C28.3834 44.5285 28.1269 44.1409 26.0803 42.6887C24.6071 41.6433 22.8389 39.9062 22.2267 38.9029ZM32.0277 42.2568C32.578 41.2441 33.4751 40.5098 34.4566 40.2688C35.3059 40.0601 36.1828 40.1628 36.969 40.5629C37.5368 40.8516 38.3171 41.6136 38.6309 42.1853C38.8771 42.6341 39.0995 43.1873 39.1083 43.8727C39.1176 44.5915 38.8772 45.1987 38.6303 45.6487C38.3027 46.246 37.6137 46.8991 36.96 47.2324C35.4599 47.9972 33.8705 47.682 32.6531 46.3789C31.8529 45.5222 31.5992 44.311 31.6426 43.7401C31.686 43.1692 31.7906 42.693 32.0277 42.2568ZM37.1623 42.0333C36.7148 41.5835 36.5398 41.4705 36.1 41.3469C34.9929 41.0362 34.2209 41.3252 33.4847 42.0995C32.9686 42.6426 32.7401 43.1039 32.7335 43.8727C32.7244 44.8875 33.2839 45.8275 34.1792 46.3026C34.703 46.5805 35.8402 46.5779 36.4529 46.2976C37.6482 45.7506 38.2281 44.413 37.8456 43.0845C37.7251 42.6656 37.6001 42.4734 37.1623 42.0333ZM9.93986 46.4311C10.3016 45.8318 10.0264 44.7139 9.47452 44.5411C8.42346 44.2123 7.02642 44.4409 5.68231 45.1615C3.94667 46.092 2.75628 47.5999 2.19322 49.5813C1.93603 50.4863 1.91971 52.0712 2.15815 52.9892C2.77052 55.3464 4.2982 57.0236 6.67931 57.9525C7.34687 58.2129 7.44323 58.2257 9.2833 58.2978C10.3343 58.3389 12.0797 58.3743 13.162 58.3763L15.1301 58.3801L15.2351 58.0589C15.2928 57.8823 15.5893 57.3687 15.8943 56.9178C16.4436 56.1053 16.4473 56.0957 16.3145 55.8365L16.1807 55.575L13.4269 55.5719C11.9125 55.5702 10.0313 55.5325 9.24676 55.4883C7.89944 55.4123 7.78912 55.3924 7.26068 55.1297C6.58174 54.792 5.54543 53.8245 5.22393 53.2279C5.09729 52.9929 4.93375 52.5685 4.86057 52.2848C4.50375 50.9013 4.90806 49.6428 6.09696 48.4359C6.74787 47.7752 7.39532 47.4316 8.5705 47.1233C9.595 46.8546 9.72328 46.7897 9.93986 46.4311ZM22.9282 50.8729C22.0003 50.5787 20.548 49.8264 19.5981 49.1478C19.1812 48.8499 18.4582 48.2246 17.9911 47.7582C17.5242 47.2917 17.1233 46.9408 17.1004 46.9783C16.8411 47.4021 16.8336 50.7714 17.0895 51.908C17.3221 52.9413 17.8392 54.4429 17.9814 54.498C18.0557 54.5268 18.2191 54.4825 18.3443 54.3997C18.9973 53.9677 20.7391 53.194 21.5111 52.9929C23.0106 52.6023 25.4015 52.7295 26.7747 53.2729C27.6165 53.606 28.4109 54.0234 29.0691 54.4785C29.3924 54.7021 29.6823 54.8593 29.7131 54.828C29.744 54.7966 29.7672 54.1334 29.7647 53.354C29.7612 52.297 29.7217 51.7926 29.6091 51.3675C29.4509 50.7701 29.0788 49.8772 28.9881 49.8772C28.959 49.8772 28.7127 50.0296 28.4409 50.216C28.169 50.4021 27.6973 50.6815 27.3928 50.8366C27.3928 50.8366 27.172 50.9423 26.6944 51.0301C26.217 51.1179 25.2388 51.1083 25.2388 51.1083C23.7791 51.0989 23.5765 51.0784 22.9282 50.8729ZM29.9863 58.9432C29.9863 57.4817 27.4331 55.2928 25.1942 54.8352C24.392 54.6711 22.9571 54.6697 22.1743 54.8319C20.0223 55.2778 18.1987 56.5779 17.3636 58.2613C17.0922 58.8085 17.0835 59.084 17.3224 59.5819C17.603 60.1674 17.959 60.3962 18.5896 60.3962H19.1114L19.1697 59.7607C19.2164 59.2519 19.2701 59.0826 19.4393 58.9113C19.6454 58.7029 19.6549 58.7015 19.8269 58.8588C20.0378 59.0515 20.1768 59.513 20.1774 60.0237L20.178 60.3962H21.4365H22.6951V59.754C22.6951 59.1768 22.7178 59.0905 22.9194 58.8994L23.1437 58.6869L23.3535 58.9329C23.5318 59.1421 23.5631 59.27 23.5631 59.79V60.4012L24.7566 60.3768L25.9502 60.3524L25.9936 59.7625C26.0302 59.264 26.0746 59.135 26.2803 58.9298L26.5237 58.6869L26.7793 58.9732C27.007 59.228 27.0352 59.3217 27.0352 59.8279V60.3962H28.1464H29.2578L29.53 60.1113C29.8649 59.7606 29.9863 59.4499 29.9863 58.9432Z" fill="black"/>
</svg>
