<svg width="39" height="29" viewBox="0 0 39 29" fill="none" xmlns="http://www.w3.org/2000/svg">
<path d="M6.04132 21.9601V7.04346C6.04132 6.49117 6.48904 6.04346 7.04132 6.04346H31.6246C32.1769 6.04346 32.6246 6.49117 32.6246 7.04346V21.9601C32.6246 22.5124 32.1769 22.9601 31.6246 22.9601H7.04132C6.48904 22.9601 6.04132 22.5124 6.04132 21.9601Z" fill="black" stroke="#E4ECEE" stroke-width="2"/>
<circle cx="19.3329" cy="14.4976" r="3.22222" fill="black" stroke="#E4ECEE" stroke-width="2"/>
<path d="M11.8889 6.44445C11.8889 7.15942 11.7481 7.86739 11.4745 8.52794C11.2008 9.1885 10.7998 9.78869 10.2942 10.2943C9.78869 10.7998 9.1885 11.2008 8.52794 11.4745C7.86739 11.7481 7.15942 11.8889 6.44445 11.8889" stroke="#E4ECEE" stroke-width="2"/>
<path d="M26.7774 6.44445C26.7774 7.15942 26.9183 7.86739 27.1919 8.52794C27.4655 9.1885 27.8665 9.78869 28.3721 10.2943C28.8776 10.7998 29.4778 11.2008 30.1384 11.4745C30.7989 11.7481 31.5069 11.8889 32.2219 11.8889" stroke="#E4ECEE" stroke-width="2"/>
<path d="M11.8889 22.5556C11.8889 21.8406 11.7481 21.1326 11.4745 20.4721C11.2008 19.8115 10.7998 19.2113 10.2942 18.7057C9.78869 18.2002 9.1885 17.7992 8.52794 17.5255C7.86739 17.2519 7.15942 17.1111 6.44445 17.1111" stroke="#E4ECEE" stroke-width="2"/>
<path d="M26.7774 22.5556C26.7774 21.8406 26.9183 21.1326 27.1919 20.4721C27.4655 19.8115 27.8665 19.2113 28.3721 18.7057C28.8776 18.2002 29.4778 17.7992 30.1384 17.5255C30.7989 17.2519 31.5069 17.1111 32.2219 17.1111" stroke="#E4ECEE" stroke-width="2"/>
</svg>
