<svg width="25" height="25" viewBox="0 0 25 25" fill="none" xmlns="http://www.w3.org/2000/svg">
<path d="M23.884 21.72L19.313 17.2C20.7878 15.3366 21.588 13.0355 21.5851 10.6667C21.5851 8.557 20.9543 6.49471 19.7725 4.74059C18.5907 2.98646 16.911 1.61929 14.9457 0.811956C12.9805 0.00462166 10.818 -0.206614 8.73165 0.204962C6.64535 0.616538 4.72896 1.63244 3.22482 3.1242C1.72068 4.61596 0.696346 6.51658 0.281355 8.58571C-0.133637 10.6548 0.0793518 12.7996 0.893386 14.7486C1.70742 16.6977 3.08594 18.3636 4.85462 19.5357C6.6233 20.7077 8.70271 21.3333 10.8299 21.3333C13.2184 21.3363 15.5386 20.5427 17.4174 19.08L21.9749 23.6133C22.0999 23.7383 22.2486 23.8375 22.4124 23.9052C22.5763 23.9729 22.752 24.0077 22.9295 24.0077C23.1069 24.0077 23.2827 23.9729 23.4465 23.9052C23.6103 23.8375 23.759 23.7383 23.884 23.6133C24.01 23.4894 24.11 23.3419 24.1783 23.1794C24.2465 23.017 24.2817 22.8427 24.2817 22.6667C24.2817 22.4907 24.2465 22.3164 24.1783 22.1539C24.11 21.9914 24.01 21.844 23.884 21.72ZM2.76349 10.6667C2.76349 9.08442 3.23658 7.5377 4.12293 6.22211C5.00927 4.90652 6.26907 3.88114 7.74301 3.27564C9.21695 2.67013 10.8388 2.51171 12.4036 2.82039C13.9683 3.12907 15.4056 3.891 16.5337 5.00982C17.6618 6.12864 18.43 7.5541 18.7413 9.10595C19.0525 10.6578 18.8928 12.2663 18.2823 13.7281C17.6717 15.1899 16.6378 16.4394 15.3113 17.3184C13.9848 18.1975 12.4253 18.6667 10.8299 18.6667C8.69055 18.6667 6.63883 17.8238 5.12609 16.3235C3.61334 14.8232 2.76349 12.7884 2.76349 10.6667Z" fill="#161616"/>
</svg>
