<svg width="25" height="25" viewBox="0 0 25 25" fill="none" xmlns="http://www.w3.org/2000/svg">
<path d="M23.884 21.72L19.3131 17.2C20.7878 15.3366 21.5881 13.0355 21.5851 10.6667C21.5851 8.557 20.9543 6.49471 19.7725 4.74059C18.5907 2.98646 16.911 1.61929 14.9457 0.811956C12.9805 0.00462166 10.818 -0.206614 8.73167 0.204962C6.64537 0.616538 4.72897 1.63244 3.22483 3.1242C1.72069 4.61596 0.696361 6.51658 0.28137 8.58571C-0.133622 10.6548 0.0793671 12.7996 0.893402 14.7486C1.70744 16.6977 3.08596 18.3636 4.85464 19.5357C6.62332 20.7077 8.70273 21.3333 10.8299 21.3333C13.2184 21.3363 15.5386 20.5427 17.4175 19.08L21.975 23.6133C22.0999 23.7383 22.2486 23.8375 22.4125 23.9052C22.5763 23.9729 22.752 24.0077 22.9295 24.0077C23.107 24.0077 23.2827 23.9729 23.4465 23.9052C23.6103 23.8375 23.759 23.7383 23.884 23.6133C24.01 23.4894 24.11 23.3419 24.1783 23.1794C24.2465 23.017 24.2817 22.8427 24.2817 22.6667C24.2817 22.4907 24.2465 22.3164 24.1783 22.1539C24.11 21.9914 24.01 21.844 23.884 21.72ZM2.76351 10.6667C2.76351 9.08442 3.23659 7.5377 4.12294 6.22211C5.00929 4.90652 6.26909 3.88114 7.74303 3.27564C9.21697 2.67013 10.8388 2.51171 12.4036 2.82039C13.9683 3.12907 15.4056 3.891 16.5337 5.00982C17.6618 6.12864 18.4301 7.5541 18.7413 9.10595C19.0525 10.6578 18.8928 12.2663 18.2823 13.7281C17.6717 15.1899 16.6379 16.4394 15.3113 17.3184C13.9848 18.1975 12.4253 18.6667 10.8299 18.6667C8.69056 18.6667 6.63884 17.8238 5.1261 16.3235C3.61336 14.8232 2.76351 12.7884 2.76351 10.6667Z" fill="#799E2C"/>
</svg>
