<svg width="20" height="18" viewBox="0 0 20 18" fill="none" xmlns="http://www.w3.org/2000/svg">
<path d="M6.56854 16.3837C6.31165 16.2778 6.09203 16.0979 5.93753 15.867C5.78303 15.636 5.70063 15.3644 5.70078 15.0865V9.95004L1.58987 9.13487C1.29247 9.07535 1.02238 8.92103 0.820101 8.69505C0.642798 8.49696 0.525967 8.25318 0.482087 7.99252L8.09369 16.077C7.96429 16.208 7.81004 16.312 7.63996 16.3827M6.56854 16.3837C6.73855 16.4522 6.91996 16.4878 7.10322 16.4889C7.28742 16.4896 7.46989 16.4535 7.63996 16.3827M6.56854 16.3837L6.6059 16.2909L6.60747 16.2893L6.56854 16.3837ZM7.63996 16.3827L7.44795 15.9211C7.55662 15.8759 7.65518 15.8094 7.73786 15.7257L7.74081 15.7227L7.74082 15.7227L10.0198 13.4525L10.3516 13.122L10.7031 13.4315L14.1478 16.4642L14.1481 16.4645C14.3118 16.6089 14.5222 16.689 14.7404 16.6901L14.7481 16.6902L14.7481 16.6902C14.8264 16.6919 14.9044 16.6811 14.9792 16.6584L14.4162 16.1631L7.19367 9.80827L6.7232 9.39432L7.23127 9.0275L17.6356 1.51568L18.6844 0.758487C18.6692 0.743162 18.6534 0.728358 18.6371 0.714103C18.5119 0.608729 18.3607 0.538995 18.1992 0.51225C18.0368 0.485343 17.8701 0.502952 17.7168 0.563205L17.7167 0.563281L1.53599 6.91809L1.53123 6.91996L1.53122 6.91994C1.34988 6.98903 1.19628 7.11581 1.09407 7.28077C1.03826 7.37084 0.999459 7.46956 0.978802 7.57207L1.68737 7.29341L13.9237 2.48129L14.3992 3.35205L6.52804 9.03194L6.3515 9.15934L6.13797 9.11689L1.77287 8.24913L1.02983 8.10141C1.0686 8.19619 1.12347 8.28429 1.19265 8.36157L0.82117 8.69409L1.19265 8.36157C1.32268 8.50684 1.49625 8.60609 1.68739 8.64447C1.68759 8.64451 1.68779 8.64455 1.68799 8.64459L5.79803 9.45959L6.20078 9.53945V9.95004V15.0865V15.0867C6.20068 15.2655 6.25371 15.4403 6.35312 15.589C6.41956 15.6883 6.50471 15.7729 6.60322 15.8385V15.0865V10.9317V9.82492L7.43373 10.5566L9.64258 12.5025L10.0423 12.8545L9.66562 13.2312L7.45677 15.44L6.92608 15.9707C6.98506 15.9824 7.04513 15.9885 7.10552 15.9889C7.22303 15.9893 7.33944 15.9662 7.44794 15.9211L7.63996 16.3827ZM15.4125 16.3972C15.3169 16.5008 15.1983 16.5802 15.0664 16.6291L15.2339 15.8995L18.4156 2.03288L18.7035 0.778372C18.7931 0.874477 18.8609 0.989295 18.9018 1.11499C18.9524 1.27102 18.9596 1.43791 18.9226 1.59772L18.9223 1.59909L15.6266 15.9913C15.5918 16.1429 15.518 16.2828 15.4125 16.3972ZM0.669044 7.01741C0.527779 7.2454 0.456153 7.5088 0.46166 7.77544L1.35321 6.4527C1.0694 6.56083 0.82901 6.75925 0.669044 7.01741Z" fill="black" stroke="black"/>
</svg>
