<svg width="16" height="15" viewBox="0 0 16 15" fill="none" xmlns="http://www.w3.org/2000/svg">
<path d="M15.5927 0.281955C15.4287 0.143021 15.2302 0.0511089 15.0182 0.0159888C14.8061 -0.0191312 14.5886 0.003853 14.3886 0.0824985L0.75164 5.43827C0.51245 5.5294 0.309848 5.69663 0.17503 5.91421C0.0402117 6.13179 -0.019347 6.38765 0.00552476 6.6424C0.0277144 6.89705 0.131858 7.13764 0.30234 7.3281C0.472821 7.51856 0.700451 7.64862 0.951096 7.69878L4.41573 8.3858V12.7147C4.41561 12.9489 4.48505 13.1779 4.61526 13.3725C4.74547 13.5672 4.93057 13.7188 5.14707 13.8081C5.29036 13.8657 5.44324 13.8958 5.59769 13.8967C5.75293 13.8973 5.90672 13.8668 6.05006 13.8072C6.19339 13.7476 6.3234 13.66 6.43246 13.5495L8.35315 11.6362L11.2563 14.1922C11.4707 14.3812 11.7462 14.4862 12.032 14.4877C12.1577 14.4903 12.2828 14.4703 12.4014 14.4286C12.5963 14.3669 12.7718 14.2554 12.9104 14.1051C13.049 13.9548 13.146 13.7709 13.1918 13.5717L15.9694 1.44176C16.018 1.23245 16.0086 1.01387 15.9422 0.809518C15.8758 0.605166 15.755 0.422774 15.5927 0.281955V0.281955ZM4.86635 7.27032L1.18749 6.53898L11.5001 2.48336L4.86635 7.27032ZM5.59769 12.7147V9.21317L7.45929 10.8531L5.59769 12.7147ZM12.0394 13.3057L5.95228 7.94995L14.721 1.61905L12.0394 13.3057Z" fill="white"/>
</svg>
