<svg width="20" height="20" viewBox="0 0 20 20" fill="none" xmlns="http://www.w3.org/2000/svg">
<path d="M16.7853 3.12796L16.7871 3.12974C18.4771 4.81972 19.4072 7.0679 19.4072 9.46371C19.4072 14.3964 15.3858 18.4178 10.4531 18.4178C8.95381 18.4178 7.48096 18.0385 6.1704 17.3244L5.99607 17.2294L5.80407 17.2799L1.63255 18.3764L2.74072 14.3079L2.79523 14.1077L2.69206 13.9278C1.91459 12.5717 1.49902 11.0355 1.49902 9.45417C1.49902 4.52149 5.52045 0.500057 10.4531 0.50006L10.4549 0.500054C11.6317 0.495954 12.7975 0.726211 13.8844 1.17739C14.9712 1.62858 15.9574 2.29166 16.7853 3.12796ZM6.18909 16.6468L6.19209 16.6485C7.48007 17.4092 8.95107 17.8151 10.4531 17.8151C15.0585 17.8151 18.8142 14.0729 18.795 9.4636C18.7988 8.36503 18.5847 7.2766 18.165 6.26133C17.7452 5.24587 17.1282 4.32378 16.3495 3.54848C14.7769 1.96625 12.6748 1.09323 10.4436 1.09323C5.8363 1.09323 2.08265 4.84688 2.08265 9.45417L2.08265 9.45454C2.08381 11.0262 2.52675 12.566 3.36093 13.8981L3.36089 13.8981L3.36454 13.9037L3.43437 14.012L2.70133 16.6969L2.47324 17.5323L3.31077 17.3121L6.08352 16.5834L6.18909 16.6468ZM7.7082 9.19285L7.71186 9.19938L7.71571 9.2058C7.86225 9.45002 8.36176 10.2789 9.12781 10.9623C9.96207 11.7078 10.7096 12.027 11.0275 12.1628C11.0734 12.1824 11.1103 12.1982 11.1373 12.2109C11.2888 12.2887 11.4889 12.3643 11.7139 12.3382C11.963 12.3093 12.1378 12.1703 12.2552 12.0299C12.3813 11.8853 12.7759 11.4166 12.98 11.1354C13.15 11.2082 13.7754 11.5129 14.1982 11.7189C14.353 11.7943 14.4807 11.8565 14.5488 11.8892C14.5999 11.9137 14.6478 11.9358 14.6879 11.9543C14.698 11.959 14.7075 11.9634 14.7165 11.9675C14.73 11.9738 14.7421 11.9794 14.753 11.9846C14.7524 12.0064 14.751 12.031 14.7487 12.0585C14.7358 12.2131 14.6953 12.4251 14.6099 12.6611L14.6098 12.6611L14.6073 12.6683C14.5689 12.7797 14.4074 12.967 14.1132 13.156C13.8323 13.3366 13.5507 13.442 13.416 13.4621C13.0406 13.5143 12.6117 13.5338 12.1519 13.3857L12.1519 13.3857L12.1447 13.3835C11.8119 13.2818 11.3934 13.1452 10.8551 12.908L10.8515 12.9065C8.73362 11.9927 7.28759 9.88884 7.05156 9.54544C7.04059 9.52948 7.03223 9.51732 7.02655 9.50927L7.02239 9.50338L7.01806 9.49761L7.01631 9.49527C6.96138 9.42204 6.74365 9.13181 6.53914 8.72924C6.32875 8.31511 6.15452 7.82466 6.15452 7.35538C6.15452 6.47738 6.55994 6.03115 6.79246 5.77522C6.81154 5.75422 6.82946 5.7345 6.84589 5.71593C6.95477 5.59937 7.0592 5.58486 7.1046 5.58486H7.54904C7.56235 5.58548 7.57505 5.58583 7.58591 5.58604C7.59839 5.60717 7.61481 5.63876 7.63395 5.68435C7.82022 6.14988 8.30548 7.33585 8.37458 7.47404C8.37468 7.47425 8.37478 7.47445 8.37488 7.47465C8.3081 7.60838 8.2847 7.65412 8.22275 7.7264L8.60238 8.05179L8.22275 7.7264C8.1699 7.78806 8.12338 7.84443 8.0813 7.89542C8.0098 7.98207 7.95109 8.05321 7.89584 8.10846C7.89325 8.11105 7.89041 8.11387 7.88734 8.11692C7.83079 8.17305 7.69723 8.30561 7.6298 8.49325C7.54252 8.73612 7.58808 8.97834 7.7082 9.19285Z" fill="black" stroke="black"/>
</svg>
