<svg width="16" height="17" viewBox="0 0 16 17" fill="none" xmlns="http://www.w3.org/2000/svg">
<path d="M13.6683 2.33975C12.9312 1.59516 12.0532 1.00481 11.0855 0.603104C10.1179 0.201402 9.07989 -0.0036021 8.03216 4.78952e-05C3.64221 4.78952e-05 0.0643217 3.57794 0.0643217 7.96789C0.0643217 9.37492 0.434171 10.7418 1.12563 11.9478L0 16.0804L4.22111 14.9709C5.38693 15.6061 6.69749 15.9438 8.03216 15.9438C12.4221 15.9438 16 12.3659 16 7.97593C16 5.84527 15.1719 3.84326 13.6683 2.33975V2.33975ZM8.03216 14.593C6.84221 14.593 5.67638 14.2714 4.65528 13.6684L4.41407 13.5237L1.90553 14.183L2.57286 11.7387L2.41206 11.4895C1.75095 10.4338 1.39991 9.21351 1.39899 7.96789C1.39899 4.31764 4.37387 1.34276 8.02412 1.34276C9.79296 1.34276 11.4573 2.03422 12.7035 3.28849C13.3206 3.90273 13.8096 4.63334 14.1422 5.43798C14.4748 6.24261 14.6444 7.10526 14.6412 7.97593C14.6573 11.6262 11.6824 14.593 8.03216 14.593V14.593ZM11.6663 9.64025C11.4653 9.54377 10.4844 9.06135 10.3075 8.98899C10.1226 8.92467 9.99397 8.89251 9.85729 9.08547C9.7206 9.28648 9.34271 9.73673 9.23015 9.86537C9.11759 10.0021 8.99698 10.0181 8.79598 9.91361C8.59497 9.81713 7.95176 9.60005 7.19598 8.92467C6.601 8.39402 6.20703 7.74276 6.08643 7.54176C5.97387 7.34075 6.07035 7.23623 6.17487 7.13171C6.26332 7.04326 6.37588 6.89854 6.47236 6.78598C6.56884 6.67341 6.60904 6.58497 6.67337 6.45633C6.73769 6.31964 6.70553 6.20708 6.65729 6.1106C6.60904 6.01412 6.20703 5.03321 6.04623 4.6312C5.88543 4.24527 5.71658 4.29351 5.59598 4.28547H5.21005C5.07337 4.28547 4.86432 4.33372 4.6794 4.53472C4.50251 4.73573 3.98794 5.21814 3.98794 6.19904C3.98794 7.17995 4.70352 8.12869 4.8 8.25733C4.89648 8.39402 6.20703 10.4041 8.201 11.2644C8.67538 11.4734 9.04523 11.594 9.33467 11.6825C9.80904 11.8352 10.2432 11.8111 10.5889 11.7629C10.9749 11.7066 11.7709 11.2804 11.9317 10.8141C12.1005 10.3478 12.1005 9.95382 12.0442 9.86537C11.9879 9.77693 11.8673 9.73673 11.6663 9.64025V9.64025Z" fill="white"/>
</svg>
